<svg width="20" height="21" viewBox="0 0 20 21" fill="none" xmlns="http://www.w3.org/2000/svg">
<g id="Arrow - Right Circle">
<path id="Arrow - Right Circle_2" fill-rule="evenodd" clip-rule="evenodd" d="M20.0001 10.5C20.0001 16.02 15.5101 20.5 10.0001 20.5L9.72033 20.4962C4.32952 20.3478 9.91821e-05 15.9264 9.91821e-05 10.5C9.91821e-05 4.99 4.4801 0.5 10.0001 0.5C15.5101 0.5 20.0001 4.99 20.0001 10.5ZM8.0201 6.5C7.7301 6.8 7.7301 7.27 8.0301 7.56L10.9801 10.5L8.0301 13.44C7.7301 13.73 7.7301 14.21 8.0201 14.5C8.3201 14.8 8.7901 14.8 9.0801 14.5L12.5701 11.03C12.7101 10.89 12.7901 10.7 12.7901 10.5C12.7901 10.3 12.7101 10.11 12.5701 9.97L9.0801 6.5C8.9401 6.35 8.7501 6.28 8.5601 6.28C8.3601 6.28 8.1701 6.35 8.0201 6.5Z" fill="white"/>
</g>
</svg>
