<svg width="44" height="37" viewBox="0 0 44 37" fill="none" xmlns="http://www.w3.org/2000/svg">
<path id="&#226;&#128;&#156;" d="M0.5 36V36.5H1H18.5522H19.0522V36V18.625V18.125H18.5522H11.1355C11.4933 16.4754 12.1431 14.8524 13.0898 13.2549C14.1485 11.4686 15.7066 9.5432 17.7769 7.47908L18.1765 7.08066L17.7329 6.73192L11.2135 1.60692L10.8611 1.32993L10.5474 1.65C6.92259 5.34808 4.3311 9.02446 2.7957 12.6814C1.26318 16.3316 0.5 20.3148 0.5 24.625V36ZM24.9478 36V36.5H25.4478H43H43.5V36V18.625V18.125H43H35.5833C35.9411 16.4754 36.5908 14.8524 37.5376 13.2549C38.5963 11.4686 40.1544 9.5432 42.2247 7.47908L42.6243 7.08066L42.1806 6.73192L35.6612 1.60692L35.3089 1.32993L34.9952 1.65C31.3703 5.34808 28.7789 9.02446 27.2435 12.6814C25.7109 16.3316 24.9478 20.3148 24.9478 24.625V36Z" fill="#F5F5F5" stroke="#DEDCDA"/>
</svg>
